<svg height="512pt" viewBox="0 0 512 512" width="512pt" xmlns="http://www.w3.org/2000/svg"><path d="m512 234c0-16.542969-13.457031-30-30-30h-15.394531c6.742187-10.21875 11.640625-22.328125 14.074219-35.308594 4.414062-23.582031.328124-46.527344-11.21875-62.941406-8.027344-11.410156-18.878907-18.507812-31.382813-20.519531-9.128906-1.472657-18.414063-.054688-27.195313 3.9375 2.933594-5.3125 7.640626-9.515625 13.46875-11.816407 5.136719-2.027343 7.65625-7.835937 5.628907-12.972656-2.027344-5.136718-7.835938-7.660156-12.976563-5.628906-14.699218 5.804688-25.351562 18.511719-28.507812 33.996094-10.652344-6.660156-22.367188-9.359375-33.828125-7.515625-11.441407 1.84375-21.492188 7.953125-29.269531 17.71875-2.828126-6.613281-6.621094-12.871094-11.332032-18.550781-5.109375-6.160157-11.074218-11.378907-17.652344-15.554688 5.679688-5.433594 9.226563-13.078125 9.226563-21.539062 0-13.753907-9.359375-25.363282-22.042969-28.792969-4.480468-10.953125-15.242187-18.511719-27.597656-18.511719s-23.117188 7.558594-27.601562 18.511719c-12.683594 3.429687-22.042969 15.039062-22.042969 28.792969 0 8.46875 3.554687 16.117187 9.242187 21.550781-6.566406 4.175781-12.527344 9.386719-17.625 15.539062-11.492187 13.855469-17.535156 31.097657-17.371094 48.761719-7.136718-4.871094-15-8.71875-23.441406-11.402344-14.875-4.730468-27.234375-14.550781-34.804687-27.660156-6.683594-11.574219-17.472657-19.851562-30.378907-23.3125-10.339843-2.769531-21.042968-2.175781-30.84375 1.601562-5.492187-5.839843-8.511718-13.421874-8.511718-21.476562 0-5.523438-4.476563-10-10-10-5.519532 0-10 4.476562-10 10 0 11.929688 4.042968 23.234375 11.472656 32.363281-6.398438 6.210938-11.023438 14.050781-13.394531 22.886719-3.457031 12.910156-1.683594 26.394531 5 37.96875 7.628906 13.214844 9.992187 28.660156 6.65625 43.492188-1.203125 5.359374-1.90625 10.847656-2.109375 16.378906h-10.246094c-16.542969 0-30 13.457031-30 30v56c0 7.679687 2.902344 14.6875 7.664062 20-4.761718 5.316406-7.664062 12.324218-7.664062 20.003906v56c0 7.679688 2.902344 14.6875 7.664062 20-4.761718 5.3125-7.664062 12.320312-7.664062 20v56c0 16.542969 13.457031 30 30 30h452c16.542969 0 30-13.457031 30-30v-56c0-7.679688-2.902344-14.6875-7.664062-20 4.761718-5.3125 7.664062-12.320312 7.664062-20v-56c0-7.679688-2.902344-14.6875-7.664062-20 4.761718-5.3125 7.664062-12.320312 7.664062-20zm-124.796875-112.136719c-.445313 5.351563-2.753906 10.421875-6.671875 14.335938-3.917969 3.917969-8.988281 6.226562-14.335938 6.671875.445313-5.347656 2.753907-10.421875 6.667969-14.335938 3.917969-3.917968 8.992188-6.226562 14.339844-6.671875zm-29.355469-16.886719c4.078125-.65625 8.296875-.238281 12.476563 1.140626-4.226563 2.066406-8.15625 4.832031-11.601563 8.277343-10.5 10.5-14.8125 25.429688-11.539062 39.9375.847656 3.765625 3.789062 6.703125 7.554687 7.554688 3.191407.71875 6.40625 1.074219 9.589844 1.074219 11.273437 0 22.160156-4.429688 30.347656-12.617188 9.183594-9.183594 13.636719-21.761719 12.417969-34.484375 8.636719-8.421875 18.589844-12.367187 27.804688-10.882813 8.914062 1.433594 14.820312 7.46875 18.203124 12.28125 8.339844 11.855469 11.300782 29.707032 7.917969 47.753907-2.957031 15.808593-10.3125 29.8125-20.367187 38.988281h-88.554688c-10.058594-9.175781-17.410156-23.179688-20.371094-38.988281-3.378906-18.046875-.417968-35.898438 7.921876-47.753907 3.378906-4.8125 9.285156-10.847656 18.199218-12.28125zm-36.867187 90.152344c1.566406 3.089844 3.296875 6.046875 5.160156 8.871094h-6.828125zm-84.800781-138.003906c-5.417969 0-9.824219-4.40625-9.824219-9.820312 0-5.382813 4.355469-9.769532 9.726562-9.824219.101563.003906.167969.003906.242188.003906 5.0625 0 9.335937-3.792969 9.929687-8.832031.578125-4.933594 4.769532-8.652344 9.746094-8.652344s9.167969 3.71875 9.746094 8.652344c.59375 5.042968 4.867187 8.832031 9.933594 8.832031h.101562.117188c5.378906.039063 9.746093 4.429687 9.746093 9.820313 0 5.414062-4.40625 9.820312-9.820312 9.820312zm19.839843 20c16.542969 0 32.089844 7.304688 42.652344 20.039062 7.210937 8.695313 11.5 19.203126 12.523437 30.171876h-17.417968c-5.519532 0-10 4.476562-10 10 0 5.519531 4.480468 10 10 10h15.847656l-10.664062 56.664062h-85.886719l-11.515625-61.214844c-1.226563-6.515625-1.25-13.089844-.183594-19.449218h35.378906c5.519532 0 10-4.480469 10-10 0-5.523438-4.480468-10-10-10h-27.8125c1.328125-2.136719 2.792969-4.207032 4.421875-6.171876 10.5625-12.734374 26.109375-20.039062 42.65625-20.039062zm-203 57c-4.011719-6.945312-5.078125-15.039062-3-22.789062 2.074219-7.746094 7.042969-14.222657 13.992188-18.234376 6.945312-4.007812 15.039062-5.078124 22.789062-3 7.746094 2.078126 14.222657 7.046876 18.230469 13.992188 10.070312 17.4375 26.429688 30.480469 46.070312 36.722656 13.769532 4.378906 25.582032 12.707032 34.273438 24.125l7.347656 39.058594h-132.457031c.191406-4.054688.722656-8.066406 1.605469-11.988281 4.4375-19.75 1.296875-40.308594-8.851563-57.886719zm-33.019531 99.875c0-5.515625 4.484375-10 10-10h452c5.515625 0 10 4.484375 10 10v56c0 5.515625-4.484375 10-10 10h-452c-5.515625 0-10-4.484375-10-10zm472 248c0 5.515625-4.484375 10-10 10h-452c-5.515625 0-10-4.484375-10-10v-56c0-5.515625 4.484375-10 10-10h186.128906c5.519532 0 10-4.476562 10-10s-4.480468-10-10-10h-186.128906c-5.515625 0-10-4.484375-10-10v-56c0-5.515625 4.484375-10 10-10h452c5.515625 0 10 4.484375 10 10v56c0 5.515625-4.484375 10-10 10h-185.871094c-5.523437 0-10 4.476562-10 10s4.476563 10 10 10h185.871094c5.515625 0 10 4.484375 10 10zm0 0"/><path d="m64 272c2.628906 0 5.210938-1.070312 7.070312-2.929688 1.859376-1.859374 2.929688-4.441406 2.929688-7.070312s-1.070312-5.210938-2.929688-7.070312c-1.859374-1.859376-4.441406-2.929688-7.070312-2.929688s-5.210938 1.070312-7.070312 2.929688c-1.859376 1.859374-2.929688 4.441406-2.929688 7.070312s1.070312 5.210938 2.929688 7.070312c1.859374 1.859376 4.441406 2.929688 7.070312 2.929688zm0 0"/><path d="m448 272c2.628906 0 5.210938-1.070312 7.070312-2.929688 1.859376-1.859374 2.929688-4.441406 2.929688-7.070312s-1.070312-5.210938-2.929688-7.070312c-1.859374-1.859376-4.441406-2.929688-7.070312-2.929688s-5.210938 1.070312-7.070312 2.929688c-1.859376 1.859374-2.929688 4.441406-2.929688 7.070312s1.070312 5.210938 2.929688 7.070312c1.859374 1.859376 4.441406 2.929688 7.070312 2.929688zm0 0"/><path d="m64 348c-2.628906 0-5.210938 1.070312-7.070312 2.929688-1.859376 1.859374-2.929688 4.441406-2.929688 7.070312s1.070312 5.210938 2.929688 7.070312c1.859374 1.859376 4.441406 2.929688 7.070312 2.929688s5.210938-1.070312 7.070312-2.929688c1.859376-1.859374 2.929688-4.441406 2.929688-7.070312s-1.070312-5.210938-2.929688-7.070312c-1.859374-1.859376-4.441406-2.929688-7.070312-2.929688zm0 0"/><path d="m448 368c2.628906 0 5.210938-1.070312 7.070312-2.929688 1.859376-1.859374 2.929688-4.441406 2.929688-7.070312s-1.070312-5.210938-2.929688-7.070312c-1.859374-1.859376-4.441406-2.929688-7.070312-2.929688s-5.210938 1.070312-7.070312 2.929688c-1.859376 1.859374-2.929688 4.441406-2.929688 7.070312s1.070312 5.210938 2.929688 7.070312c1.859374 1.859376 4.441406 2.929688 7.070312 2.929688zm0 0"/><path d="m64 444c-2.628906 0-5.210938 1.070312-7.070312 2.929688-1.859376 1.859374-2.929688 4.441406-2.929688 7.070312s1.070312 5.210938 2.929688 7.070312c1.859374 1.859376 4.441406 2.929688 7.070312 2.929688s5.210938-1.070312 7.070312-2.929688c1.859376-1.859374 2.929688-4.441406 2.929688-7.070312s-1.070312-5.210938-2.929688-7.070312c-1.859374-1.859376-4.441406-2.929688-7.070312-2.929688zm0 0"/><path d="m448 444c-2.628906 0-5.210938 1.070312-7.070312 2.929688-1.859376 1.859374-2.929688 4.441406-2.929688 7.070312s1.070312 5.210938 2.929688 7.070312c1.859374 1.859376 4.441406 2.929688 7.070312 2.929688s5.210938-1.070312 7.070312-2.929688c1.859376-1.859374 2.929688-4.441406 2.929688-7.070312s-1.070312-5.210938-2.929688-7.070312c-1.859374-1.859376-4.441406-2.929688-7.070312-2.929688zm0 0"/><path d="m226.753906 166.136719c0 5.519531 4.476563 10 10 10h19.964844c5.519531 0 10-4.480469 10-10 0-5.523438-4.480469-10-10-10h-19.964844c-5.523437 0-10 4.476562-10 10zm0 0"/><path d="m256 396c-2.628906 0-5.210938 1.070312-7.070312 2.929688-1.859376 1.859374-2.929688 4.441406-2.929688 7.070312s1.070312 5.210938 2.929688 7.070312c1.859374 1.859376 4.441406 2.929688 7.070312 2.929688s5.210938-1.070312 7.070312-2.929688c1.859376-1.859374 2.929688-4.441406 2.929688-7.070312s-1.070312-5.210938-2.929688-7.070312c-1.859374-1.859376-4.441406-2.929688-7.070312-2.929688zm0 0"/></svg>