<svg height="496pt" viewBox="0 0 496 496" width="496pt" xmlns="http://www.w3.org/2000/svg"><path d="m488 0h-480c-4.414062 0-8 3.574219-8 8v176c0 17.71875 9.679688 33.191406 24 41.503906v262.496094c0 4.425781 3.585938 8 8 8h432c4.414062 0 8-3.574219 8-8v-262.496094c14.320312-8.3125 24-23.785156 24-41.503906v-176c0-4.425781-3.585938-8-8-8zm-8 16v56h-464v-56zm-384 72h64v96c0 17.648438-14.351562 32-32 32s-32-14.351562-32-32zm80 0h64v96c0 17.648438-14.351562 32-32 32s-32-14.351562-32-32zm80 0h64v96c0 17.648438-14.351562 32-32 32s-32-14.351562-32-32zm80 0h64v96c0 17.648438-14.351562 32-32 32s-32-14.351562-32-32zm-320 0h64v96c0 17.648438-14.351562 32-32 32s-32-14.351562-32-32zm440 392h-416v-248.71875c2.609375.4375 5.273438.71875 8 .71875 16.6875 0 31.390625-8.566406 40-21.519531 8.609375 12.960937 23.3125 21.519531 40 21.519531s31.390625-8.566406 40-21.519531c8.609375 12.960937 23.3125 21.519531 40 21.519531s31.390625-8.566406 40-21.519531c8.609375 12.960937 23.3125 21.519531 40 21.519531s31.390625-8.566406 40-21.519531c8.609375 12.960937 23.3125 21.519531 40 21.519531s31.390625-8.566406 40-21.519531c8.609375 12.960937 23.3125 21.519531 40 21.519531 2.726562 0 5.390625-.28125 8-.71875zm-8-264c-17.648438 0-32-14.351562-32-32v-96h64v96c0 17.648438-14.351562 32-32 32zm0 0"/><path d="m320 352h-16v-8c0-4.425781-3.585938-8-8-8h-96c-4.414062 0-8 3.574219-8 8v64c0 30.871094 25.121094 56 56 56 28.152344 0 51.457031-20.910156 55.359375-48h16.640625c17.648438 0 32-14.351562 32-32s-14.351562-32-32-32zm-32 0v16h-80v-16zm-40 96c-22.054688 0-40-17.945312-40-40v-24h80v24c0 22.054688-17.945312 40-40 40zm72-48h-16v-32h16c8.824219 0 16 7.175781 16 16s-7.175781 16-16 16zm0 0"/><path d="m212.679688 288c2.144531 2.144531 3.320312 4.976562 3.320312 8s-1.175781 5.855469-3.3125 8l-10.34375 10.34375 11.3125 11.3125 10.34375-10.34375c5.160156-5.167969 8-12.023438 8-19.3125s-2.839844-14.152344-8-19.3125l-4.679688-4.6875c-2.144531-2.144531-3.320312-4.976562-3.320312-8s1.175781-5.855469 3.3125-8l10.34375-10.34375-11.3125-11.3125-10.34375 10.34375c-5.160156 5.167969-8 12.023438-8 19.3125s2.839844 14.152344 8 19.3125zm0 0"/><path d="m244.679688 288c2.144531 2.144531 3.320312 4.976562 3.320312 8s-1.175781 5.855469-3.3125 8l-10.34375 10.34375 11.3125 11.3125 10.34375-10.34375c5.160156-5.167969 8-12.023438 8-19.3125s-2.839844-14.152344-8-19.3125l-4.679688-4.6875c-2.144531-2.144531-3.320312-4.976562-3.320312-8s1.175781-5.855469 3.3125-8l10.34375-10.34375-11.3125-11.3125-10.34375 10.34375c-5.160156 5.167969-8 12.023438-8 19.3125s2.839844 14.152344 8 19.3125zm0 0"/></svg>